<?xml version="1.0" standalone="no"?><!DOCTYPE svg PUBLIC "-//W3C//DTD SVG 1.1//EN" "http://www.w3.org/Graphics/SVG/1.1/DTD/svg11.dtd"><svg t="1731219026690" class="icon" viewBox="0 0 1024 1024" version="1.1" xmlns="http://www.w3.org/2000/svg" p-id="4292" xmlns:xlink="http://www.w3.org/1999/xlink" width="200" height="200"><path d="M274.976 117.344a157.632 157.632 0 1 0 0 315.264 157.632 157.632 0 0 0 0-315.264zM53.344 274.976a221.632 221.632 0 0 1 422.56-93.632h264.512a117.376 117.376 0 1 1 0 64h-245.792c1.28 9.696 1.952 19.584 1.952 29.632 0 49.664-16.32 95.52-43.936 132.448l172.768 172.768a117.344 117.344 0 1 1-45.248 45.248l-172.768-172.768a220.672 220.672 0 0 1-132.448 43.936c-10.048 0-19.936-0.672-29.632-1.952v245.792a117.376 117.376 0 1 1-64 0v-264.512a221.664 221.664 0 0 1-128-200.928zM160 853.344a53.344 53.344 0 1 0 106.656 0 53.344 53.344 0 0 0-106.656 0z m522.656-224a53.344 53.344 0 1 0 0 106.656 53.344 53.344 0 0 0 0-106.656z m117.344-416a53.344 53.344 0 1 0 106.688 0 53.344 53.344 0 0 0-106.688 0z" p-id="4293" data-spm-anchor-id="a313x.search_index.0.i0.10943a81woIYlS" class="selected" fill="#0fa7f1"></path></svg>